<svg width="23" height="23" viewBox="0 0 23 23" fill="none" xmlns="http://www.w3.org/2000/svg">
<path d="M9.318 1.84667C9.423 1.21433 9.97133 0.75 10.613 0.75H11.8882C12.5298 0.75 13.0782 1.21433 13.1832 1.84667L13.357 2.88967C13.4387 3.38433 13.805 3.781 14.267 3.97467C14.7313 4.166 15.2645 4.14033 15.6728 3.84867L16.5327 3.23383C16.7856 3.05306 17.0944 2.96792 17.4042 2.99355C17.714 3.01919 18.0046 3.15395 18.2243 3.37383L19.1262 4.27683C19.5812 4.73067 19.6395 5.44583 19.2662 5.9685L18.6513 6.82833C18.3597 7.23667 18.334 7.76867 18.5265 8.233C18.719 8.69617 19.1157 9.06133 19.6115 9.143L20.6533 9.318C21.2868 9.423 21.75 9.97017 21.75 10.6118V11.8882C21.75 12.5298 21.2868 13.0782 20.6533 13.1832L19.6103 13.357C19.1157 13.4387 18.719 13.8038 18.5265 14.267C18.334 14.7313 18.3597 15.2633 18.6513 15.6717L19.2662 16.5327C19.6395 17.0542 19.58 17.7693 19.1262 18.2243L18.2232 19.1262C18.0035 19.3457 17.7131 19.4803 17.4036 19.506C17.094 19.5316 16.7855 19.4466 16.5327 19.2662L15.6717 18.6513C15.2633 18.3597 14.7313 18.334 14.2682 18.5265C13.8038 18.719 13.4398 19.1157 13.357 19.6103L13.1832 20.6533C13.0782 21.2857 12.5298 21.75 11.8882 21.75H10.6118C9.97017 21.75 9.423 21.2857 9.31683 20.6533L9.14417 19.6103C9.06133 19.1157 8.69617 18.719 8.233 18.5253C7.76867 18.334 7.23667 18.3597 6.82833 18.6513L5.96733 19.2662C5.44583 19.6395 4.73067 19.58 4.27567 19.1262L3.37383 18.2232C3.15395 18.0034 3.01919 17.7128 2.99355 17.403C2.96792 17.0932 3.05306 16.7844 3.23383 16.5315L3.84867 15.6717C4.14033 15.2633 4.166 14.7313 3.97467 14.267C3.78217 13.8038 3.38433 13.4387 2.88967 13.357L1.84667 13.182C1.21433 13.077 0.75 12.5287 0.75 11.8882V10.6118C0.75 9.97017 1.21433 9.42183 1.84667 9.31683L2.88967 9.143C3.38433 9.06133 3.78217 8.69617 3.97467 8.233C4.16717 7.76867 4.1415 7.23667 3.84867 6.82833L3.235 5.96733C3.05423 5.71445 2.96908 5.40561 2.99472 5.09582C3.02036 4.78603 3.15512 4.49539 3.375 4.27567L4.27683 3.37383C4.49656 3.15395 4.7872 3.01919 5.09699 2.99355C5.40678 2.96792 5.71562 3.05306 5.9685 3.23383L6.82833 3.84867C7.23667 4.14033 7.76983 4.166 8.233 3.9735C8.69617 3.781 9.06133 3.38433 9.143 2.88967L9.318 1.84667Z" stroke="#F5F1E6" stroke-width="1.5" stroke-linecap="round" stroke-linejoin="round"/>
</svg>
