<svg width="28" height="28" viewBox="0 0 28 28" fill="none" xmlns="http://www.w3.org/2000/svg">
<path d="M13.8796 27.75C11.9618 27.75 10.158 27.3862 8.46837 26.6585C6.77974 25.9298 5.31053 24.9411 4.06075 23.6923C2.81097 22.4436 1.82174 20.9759 1.09304 19.2893C0.364347 17.6028 0 15.7995 0 13.8796C0 11.9597 0.364347 10.156 1.09304 8.46838C1.82071 6.77974 2.80789 5.31053 4.05458 4.06075C5.30128 2.81097 6.76946 1.82174 8.45913 1.09304C10.1488 0.364347 11.9525 0 13.8704 0C15.7882 0 17.592 0.364347 19.2816 1.09304C20.9703 1.82071 22.4395 2.8084 23.6892 4.05613C24.939 5.30385 25.9283 6.77203 26.657 8.46067C27.3857 10.1493 27.75 11.9525 27.75 13.8704C27.75 15.7882 27.3862 17.592 26.6585 19.2816C25.9308 20.9713 24.9421 22.4405 23.6923 23.6893C22.4426 24.938 20.9749 25.9272 19.2893 26.657C17.6038 27.3867 15.8005 27.751 13.8796 27.75ZM10.0208 15.4167C11.3138 15.4167 12.4078 14.9691 13.303 14.0739C14.1982 13.1787 14.6458 12.0846 14.6458 10.7917C14.6458 9.49872 14.1982 8.40465 13.303 7.50946C12.4078 6.61426 11.3138 6.16667 10.0208 6.16667C8.72789 6.16667 7.63382 6.61426 6.73862 7.50946C5.84343 8.40465 5.39583 9.49872 5.39583 10.7917C5.39583 12.0846 5.84343 13.1787 6.73862 14.0739C7.63382 14.9691 8.72789 15.4167 10.0208 15.4167ZM20.8125 17.5519C21.8423 17.5519 22.7123 17.1963 23.4225 16.485C24.1327 15.7738 24.4878 14.9038 24.4878 13.875C24.4878 12.8462 24.1327 11.9762 23.4225 11.265C22.7123 10.5537 21.8423 10.1986 20.8125 10.1997C19.7827 10.2007 18.9127 10.5558 18.2025 11.265C17.4923 11.9741 17.1372 12.8441 17.1372 13.875C17.1372 14.9059 17.4923 15.7759 18.2025 16.485C18.9127 17.1942 19.7827 17.5498 20.8125 17.5519ZM13.875 26.2083C15.9007 26.2083 17.7636 25.7638 19.4635 24.8748C21.1635 23.9847 22.5854 22.7807 23.7293 21.2627C23.2494 21.1291 22.7663 21.0206 22.2802 20.9374C21.794 20.8541 21.3048 20.8125 20.8125 20.8125C19.2328 20.8125 17.613 21.2601 15.9532 22.1553C14.2933 23.0505 12.9839 24.3511 12.025 26.0573C12.3436 26.121 12.6519 26.1621 12.95 26.1806C13.2481 26.1991 13.5564 26.2083 13.875 26.2083ZM8.62408 25.0274C9.22739 23.8105 9.90315 22.8018 10.6514 22.0011C11.3996 21.2005 12.227 20.4487 13.1335 19.7457C12.6853 19.6121 12.1463 19.5 11.5163 19.4096C10.8873 19.3171 10.2999 19.2708 9.75412 19.2708C8.65749 19.2708 7.61789 19.4075 6.63533 19.6809C5.65278 19.9533 4.69438 20.3562 3.76013 20.8896C4.36857 21.7776 5.08544 22.5757 5.91075 23.2838C6.73606 23.993 7.6405 24.5747 8.62408 25.029" fill="#F5F1E6"/>
</svg>
